<?xml version="1.0" encoding="UTF-8" standalone="no"?>
<svg
   xmlns:dc="http://purl.org/dc/elements/1.1/"
   xmlns:cc="http://creativecommons.org/ns#"
   xmlns:rdf="http://www.w3.org/1999/02/22-rdf-syntax-ns#"
   xmlns:svg="http://www.w3.org/2000/svg"
   xmlns="http://www.w3.org/2000/svg"
   xmlns:sodipodi="http://sodipodi.sourceforge.net/DTD/sodipodi-0.dtd"
   xmlns:inkscape="http://www.inkscape.org/namespaces/inkscape"
   version="1.1"
   id="svg2"
   xml:space="preserve"
   width="1920"
   height="1280"
   viewBox="0 0 1920 1280"
   sodipodi:docname="login.svg"
   inkscape:version="1.0.1 (c497b03c, 2020-09-10)"><metadata
     id="metadata8"><rdf:RDF><cc:Work
         rdf:about=""><dc:format>image/svg+xml</dc:format><dc:type
           rdf:resource="http://purl.org/dc/dcmitype/StillImage" /><dc:title></dc:title></cc:Work></rdf:RDF></metadata><defs
     id="defs6" /><sodipodi:namedview
     pagecolor="#ffffff"
     bordercolor="#666666"
     borderopacity="1"
     objecttolerance="10"
     gridtolerance="10"
     guidetolerance="10"
     inkscape:pageopacity="0"
     inkscape:pageshadow="2"
     inkscape:window-width="1440"
     inkscape:window-height="900"
     id="namedview4"
     inkscape:document-rotation="0"
     showgrid="false"
     inkscape:zoom="0.37083333"
     inkscape:cx="960"
     inkscape:cy="640"
     inkscape:window-x="0"
     inkscape:window-y="0"
     inkscape:window-maximized="0"
     inkscape:current-layer="g12" /><g
     id="g10"
     inkscape:groupmode="layer"
     inkscape:label="ink_ext_XXXXXX"
     transform="matrix(1.3333333,0,0,-1.3333333,0,1280)"><g
       id="g12"
       transform="scale(0.1)"><path
         d="m 4460.51,3754.83 c -51.69,450.14 87.74,928.72 604.78,1236.63 475.86,283.42 496.16,367.43 502.18,1403.94 11.51,1981.67 2778.98,2372.04 4666.43,1649.1 2482,-950.65 2083.9,-2108.52 635.7,-3457.23 C 9626.3,3429.43 12075.8,1347.21 9998.01,788.297 9019.38,525.031 6570.19,567.805 5552.3,660.695 c -812.51,74.141 -687.43,757.485 -632.99,1392.425 88.82,1035.36 -355.45,801.29 -458.8,1701.71"
         style="fill:#ee6c6c;fill-opacity:1;fill-rule:evenodd;stroke:none"
         id="path14" /><path
         d="m 6061.95,2919.64 h 1631.84 c 68.71,0 124.76,-56.06 124.76,-124.76 v -23.44 c 0,-68.7 -56.07,-124.75 -124.76,-124.75 H 5904.36 c -45.8,0 -93.72,18.86 -108.05,62.37 L 5234.74,4412.8 c -21.5,65.27 -13.85,136.1 45.67,170.43 l 20.33,11.73 c 59.51,34.34 150.17,19.97 170.39,-45.67 l 482.78,-1567.27 c 13.48,-43.76 62.23,-62.38 108.04,-62.38"
         style="fill:#e8ccca;fill-opacity:1;fill-rule:evenodd;stroke:none"
         id="path16" /><path
         d="M 8079.06,3753 V 1045.96 H 7947.15 V 3753 Z m 1078.67,0 V 1045.96 H 9025.82 V 3753 h 131.91"
         style="fill:#e8ccca;fill-opacity:1;fill-rule:nonzero;stroke:none"
         id="path18" /><path
         d="m 7000.68,4112.65 49.43,-45.32 122.46,295.15 -216.22,178.89 c 2.48,-38.3 -1.84,-86.96 -22.08,-162.49 l 133.68,-104.11 -67.27,-162.12"
         style="fill:#7976c9;fill-opacity:1;fill-rule:evenodd;stroke:none"
         id="path20" /><path
         d="m 7172.57,4362.48 124.15,-108.34 c 85.85,-74.93 660.65,-87.13 786.99,-88.25 128.24,-1.15 179.1,-48.93 179.11,-165.48 h -18.86 c -23.2,53.52 -74.96,76.97 -164.3,77.76 -126.34,1.14 -801.72,13.33 -887.57,88.26 l -75.33,65.74 55.81,130.31"
         style="fill:#db9094;fill-opacity:1;fill-rule:evenodd;stroke:none"
         id="path22" /><path
         d="m 5863.61,3535.78 c 189.7,0 1057.16,-122.81 1577.22,-239.89 413.15,-92.98 395.08,-209.24 426.27,-420.32 26.68,-451.09 53.37,-902.17 80.05,-1353.25 -117.18,0 -120.03,0 -237.21,0 -65.26,430.61 -244.84,861.22 -310.09,1291.82 -743.71,0 -1729.89,-258.67 -1536.24,721.64"
         style="fill:#3f378d;fill-opacity:1;fill-rule:evenodd;stroke:none"
         id="path24" /><path
         d="m 5863.6,3535.78 c 353.27,1045.38 232.6,1334.97 819.44,1569.67 123.1,-28.55 216.87,-78.91 285.56,-146.21 -104.7,-390.76 41.19,-298.51 -34.33,-580.36 l 133.68,-104.11 -122.47,-295.15 -114.71,80.97 c -96.09,74.52 -155.09,-457.76 -215.25,-614.02 -319.31,43.95 -432.61,45.26 -751.92,89.21"
         style="fill:#8380d7;fill-opacity:1;fill-rule:evenodd;stroke:none"
         id="path26" /><path
         d="m 6683.05,5105.45 c 91.32,-52.72 194.23,-93.5 285.56,-146.23 27.45,47.55 54.9,95.09 82.35,142.63 180.93,-48.47 325.66,77.66 381.97,175.19 91.36,-52.75 48.9,71.39 42.46,95.34 7.74,28.91 13.07,55.92 16.29,81.08 l -1.46,1.09 c -3.42,-1.33 -3.66,1 -7.01,-0.3 -0.39,-0.11 -48.51,75.64 -52.84,83.13 -5.36,-20 -10.73,-39.99 -16.08,-60.01 -106.61,15.61 -107.5,82.41 -137.43,112.34 -33.72,-125.95 -54.41,-167.18 -221.46,-183.5 l 0.8,-5.29 -0.97,5.28 c -22.72,-2.22 -48.1,-3.88 -76.58,-5 60.67,111.04 19.51,163.98 -42.9,194.62 -33.45,-19.3 -81.86,-271.61 -167.2,-378.8 l -85.5,-111.57"
         style="fill:#eba6a9;fill-opacity:1;fill-rule:evenodd;stroke:none"
         id="path28" /><path
         d="m 7026.58,5059.62 c 1.9,3.31 23.72,41.1 24.38,42.23 -39.98,113.13 -57.66,159.33 -77.08,277.74 0,-122.21 39.67,-271.34 52.7,-319.97"
         style="fill:#db9094;fill-opacity:1;fill-rule:evenodd;stroke:none"
         id="path30" /><path
         d="m 6937.66,5962.98 c -509.75,737.86 -733.84,-361.08 -1086.16,-455.5 690.2,-320.2 743.2,640.02 984.32,398.9 -240.62,-138.92 -224.65,-399.49 -67.27,-689.36 160.81,199.47 189.9,284.06 167.2,323.38 50.17,-24.63 63.66,-103.26 42.91,-139.22 253.38,7.08 270.84,54.24 298.2,188.53 29.93,-29.94 30.83,-96.73 137.43,-112.34 5.36,20.01 10.71,40.01 16.08,60.01 16.86,-29.2 33.71,-58.43 50.57,-87.64 306.03,176.69 -93.73,702.85 -543.28,513.24"
         style="fill:#0b233f;fill-opacity:1;fill-rule:evenodd;stroke:none"
         id="path32" /><path
         d="m 7067.94,4274.77 124.15,-108.34 c 85.85,-74.93 761.23,-87.12 887.57,-88.25 128.25,-1.15 179.09,-48.94 179.11,-165.49 -79.13,-0.01 -76.64,0 -155.77,-0.01 -0.03,43.11 -139.42,41.67 -158.05,0.01 l -568.61,-0.01 c -173.26,0.01 -287.93,-44.17 -430.86,76.18 l 122.46,285.91"
         style="fill:#eba6a9;fill-opacity:1;fill-rule:evenodd;stroke:none"
         id="path34" /><path
         d="M 9669.71,3714.82 H 7394.65 v 131.91 h 2275.06 v -131.91"
         style="fill:#e8ccca;fill-opacity:1;fill-rule:nonzero;stroke:none"
         id="path36" /><path
         d="m 7709.94,1522.31 c 0,-25.24 0,-58.04 0,-83.28 228.08,-131.67 309.49,-349.57 541.74,-314.62 15.45,2.31 24.47,6.01 28.45,10.72 -116.69,67.37 -325.91,248.82 -325.91,387.18 -81.77,0 -162.5,0 -244.28,0"
         style="fill:#eba6a9;fill-opacity:1;fill-rule:evenodd;stroke:none"
         id="path38" /><path
         d="m 7802.79,1046.37 v 165.06 c 20.19,-4.5 137.85,-89.68 190.65,-113.94 215.35,-99.013 417.45,-37.85 286.69,37.64 -4.02,-4.71 -13,-8.41 -28.45,-10.72 -232.23,-34.98 -313.63,182.88 -541.63,314.56 l 0.36,-392.6 h 92.38"
         style="fill:#49546a;fill-opacity:1;fill-rule:evenodd;stroke:none"
         id="path40" /><path
         d="M 5658.09,1045.96 6074.34,2799 c 26.96,113.55 93.54,205.42 182.3,269.71 92.44,66.93 208.97,103.81 329.49,103.81 120.52,0 237.05,-36.88 329.48,-103.82 88.76,-64.3 155.35,-156.16 182.31,-269.7 l 416.25,-1753.04 h -90.33 L 7012.4,2778.73 c -21.84,91.93 -76,166.51 -148.31,218.88 -77.43,56.07 -175.74,86.97 -277.96,86.97 -102.22,0 -200.53,-30.9 -277.97,-86.95 -72.31,-52.38 -126.48,-126.97 -148.3,-218.9 L 5748.43,1045.96 h -90.34"
         style="fill:#49546a;fill-opacity:1;fill-rule:nonzero;stroke:none"
         id="path42" /><path
         d="M 7757.83,7819.77 H 10291.2 V 4359.58 H 7757.83 v 3460.19"
         style="fill:#a6a4f5;fill-opacity:1;fill-rule:evenodd;stroke:none"
         id="path44" /><path
         d="M 7824.78,7752.82 H 10224.3 V 4426.53 H 7824.78 v 3326.29"
         style="fill:#ffffff;fill-opacity:1;fill-rule:evenodd;stroke:none"
         id="path46" /><path
         d="m 10224.3,6934.64 v -26.78 H 7824.78 v 26.78 z m 0,-831.56 V 6076.3 H 7824.78 v 26.78 z m 0,-831.57 v -26.78 H 7824.78 v 26.78 h 2399.52"
         style="fill:#e6e6e6;fill-opacity:1;fill-rule:evenodd;stroke:none"
         id="path48" /><path
         d="m 8196.07,7521.57 c 49.11,0 93.57,-19.91 125.75,-52.09 32.18,-32.18 52.09,-76.64 52.09,-125.75 0,-49.1 -19.91,-93.56 -52.09,-125.75 -32.18,-32.18 -76.64,-52.09 -125.75,-52.09 -49.1,0 -93.57,19.91 -125.75,52.09 -32.18,32.19 -52.09,76.65 -52.09,125.75 0,49.11 19.91,93.57 52.09,125.75 32.18,32.18 76.65,52.09 125.75,52.09 z m 100.5,-77.34 c -25.71,25.72 -61.25,41.63 -100.5,41.63 -39.25,0 -74.79,-15.91 -100.5,-41.63 -25.72,-25.7 -41.63,-61.25 -41.63,-100.5 0,-39.25 15.91,-74.78 41.63,-100.5 25.71,-25.71 61.25,-41.62 100.5,-41.62 39.25,0 74.79,15.91 100.5,41.62 25.72,25.72 41.63,61.25 41.63,100.5 0,39.25 -15.91,74.8 -41.63,100.5"
         style="fill:#49546a;fill-opacity:1;fill-rule:nonzero;stroke:none"
         id="path50" /><path
         d="m 8126.43,7332.34 c -8.09,5.62 -10.09,16.74 -4.47,24.83 5.62,8.09 16.74,10.08 24.83,4.46 l 50.2,-34.98 236.11,136.32 c 8.51,4.93 19.41,2.03 24.34,-6.48 4.93,-8.51 2.02,-19.41 -6.48,-24.34 l -245.08,-141.49 c -5.91,-3.89 -13.83,-4.04 -19.99,0.25 l -59.46,41.43"
         style="fill:#00b1fd;fill-opacity:1;fill-rule:nonzero;stroke:none"
         id="path52" /><path
         d="m 8605.16,7445.6 h 1251.57 c 16.98,0 30.86,-13.89 30.86,-30.86 v -0.01 c 0,-16.97 -13.88,-30.85 -30.86,-30.85 H 8605.16 c -16.97,0 -30.86,13.88 -30.86,30.85 v 0.01 c 0,16.97 13.89,30.86 30.86,30.86"
         style="fill:#e6e6e6;fill-opacity:1;fill-rule:evenodd;stroke:none"
         id="path54" /><path
         d="m 8605.16,7303.6 h 1044.29 c 16.97,0 30.86,-13.89 30.86,-30.86 v -0.01 c 0,-16.97 -13.89,-30.85 -30.86,-30.85 H 8605.16 c -16.97,0 -30.86,13.88 -30.86,30.85 v 0.01 c 0,16.97 13.89,30.86 30.86,30.86"
         style="fill:#e6e6e6;fill-opacity:1;fill-rule:evenodd;stroke:none"
         id="path56" /><path
         d="m 8196.07,6683.3 c 49.11,0 93.57,-19.91 125.75,-52.09 32.18,-32.17 52.09,-76.64 52.09,-125.75 0,-49.09 -19.91,-93.56 -52.09,-125.74 -32.18,-32.18 -76.64,-52.09 -125.75,-52.09 -49.1,0 -93.57,19.91 -125.75,52.09 -32.18,32.18 -52.09,76.65 -52.09,125.74 0,49.11 19.91,93.58 52.09,125.75 32.18,32.18 76.65,52.09 125.75,52.09 z m 100.5,-77.33 c -25.71,25.71 -61.25,41.63 -100.5,41.63 -39.25,0 -74.79,-15.92 -100.5,-41.63 -25.72,-25.71 -41.63,-61.25 -41.63,-100.51 0,-39.24 15.91,-74.78 41.63,-100.5 25.71,-25.71 61.25,-41.62 100.5,-41.62 39.25,0 74.79,15.91 100.5,41.62 25.72,25.72 41.63,61.26 41.63,100.5 0,39.26 -15.91,74.8 -41.63,100.51"
         style="fill:#49546a;fill-opacity:1;fill-rule:nonzero;stroke:none"
         id="path58" /><path
         d="m 8126.43,6494.08 c -8.09,5.62 -10.09,16.74 -4.47,24.82 5.62,8.09 16.74,10.09 24.83,4.47 l 50.2,-34.98 236.11,136.32 c 8.51,4.93 19.41,2.02 24.34,-6.49 4.93,-8.51 2.02,-19.41 -6.48,-24.33 l -245.08,-141.5 c -5.91,-3.89 -13.83,-4.03 -19.99,0.25 l -59.46,41.44"
         style="fill:#f06a60;fill-opacity:1;fill-rule:nonzero;stroke:none"
         id="path60" /><path
         d="m 8605.16,6607.34 h 1251.57 c 16.98,0 30.86,-13.89 30.86,-30.87 v 0 c 0,-16.97 -13.88,-30.86 -30.86,-30.86 H 8605.16 c -16.97,0 -30.86,13.89 -30.86,30.86 v 0 c 0,16.98 13.89,30.87 30.86,30.87"
         style="fill:#e6e6e6;fill-opacity:1;fill-rule:evenodd;stroke:none"
         id="path62" /><path
         d="m 8605.16,6465.33 h 1044.29 c 16.97,0 30.86,-13.88 30.86,-30.86 v 0 c 0,-16.97 -13.89,-30.86 -30.86,-30.86 H 8605.16 c -16.97,0 -30.86,13.89 -30.86,30.86 v 0 c 0,16.98 13.89,30.86 30.86,30.86"
         style="fill:#e6e6e6;fill-opacity:1;fill-rule:evenodd;stroke:none"
         id="path64" /><path
         d="m 8196.07,5851.73 c 49.11,0 93.57,-19.9 125.75,-52.09 32.18,-32.17 52.09,-76.64 52.09,-125.74 0,-49.1 -19.91,-93.56 -52.09,-125.75 -32.18,-32.18 -76.64,-52.09 -125.75,-52.09 -49.1,0 -93.57,19.91 -125.75,52.09 -32.18,32.19 -52.09,76.65 -52.09,125.75 0,49.1 19.91,93.57 52.09,125.74 32.18,32.19 76.65,52.09 125.75,52.09 z m 100.5,-77.33 c -25.71,25.72 -61.25,41.63 -100.5,41.63 -39.25,0 -74.79,-15.91 -100.5,-41.63 -25.72,-25.71 -41.63,-61.25 -41.63,-100.5 0,-39.25 15.91,-74.79 41.63,-100.51 25.71,-25.71 61.25,-41.62 100.5,-41.62 39.25,0 74.79,15.91 100.5,41.62 25.72,25.72 41.63,61.26 41.63,100.51 0,39.25 -15.91,74.79 -41.63,100.5"
         style="fill:#49546a;fill-opacity:1;fill-rule:nonzero;stroke:none"
         id="path66" /><path
         d="m 8126.43,5662.51 c -8.09,5.62 -10.09,16.74 -4.47,24.83 5.62,8.08 16.74,10.08 24.83,4.46 l 50.2,-34.98 236.11,136.32 c 8.51,4.93 19.41,2.02 24.34,-6.48 4.93,-8.51 2.02,-19.41 -6.48,-24.34 l -245.08,-141.5 c -5.91,-3.88 -13.83,-4.03 -19.99,0.25 l -59.46,41.44"
         style="fill:#eab436;fill-opacity:1;fill-rule:nonzero;stroke:none"
         id="path68" /><path
         d="m 8605.16,5775.77 h 1251.57 c 16.98,0 30.86,-13.89 30.86,-30.86 v -0.01 c 0,-16.97 -13.88,-30.86 -30.86,-30.86 H 8605.16 c -16.97,0 -30.86,13.89 -30.86,30.86 v 0.01 c 0,16.97 13.89,30.86 30.86,30.86"
         style="fill:#e6e6e6;fill-opacity:1;fill-rule:evenodd;stroke:none"
         id="path70" /><path
         d="m 8605.16,5633.77 h 1044.29 c 16.97,0 30.86,-13.89 30.86,-30.86 v -0.01 c 0,-16.97 -13.89,-30.86 -30.86,-30.86 H 8605.16 c -16.97,0 -30.86,13.89 -30.86,30.86 v 0.01 c 0,16.97 13.89,30.86 30.86,30.86"
         style="fill:#e6e6e6;fill-opacity:1;fill-rule:evenodd;stroke:none"
         id="path72" /><path
         d="m 8196.07,5013.47 c 49.11,0 93.57,-19.91 125.75,-52.09 32.18,-32.18 52.09,-76.65 52.09,-125.75 0,-49.1 -19.91,-93.56 -52.09,-125.75 -32.18,-32.18 -76.64,-52.09 -125.75,-52.09 -49.1,0 -93.57,19.91 -125.75,52.09 -32.18,32.19 -52.09,76.65 -52.09,125.75 0,49.1 19.91,93.57 52.09,125.75 32.18,32.18 76.65,52.09 125.75,52.09 z m 100.5,-77.34 c -25.71,25.72 -61.25,41.63 -100.5,41.63 -39.25,0 -74.79,-15.91 -100.5,-41.63 -25.72,-25.71 -41.63,-61.25 -41.63,-100.5 0,-39.25 15.91,-74.79 41.63,-100.5 25.71,-25.72 61.25,-41.63 100.5,-41.63 39.25,0 74.79,15.91 100.5,41.63 25.72,25.71 41.63,61.25 41.63,100.5 0,39.25 -15.91,74.79 -41.63,100.5"
         style="fill:#49546a;fill-opacity:1;fill-rule:nonzero;stroke:none"
         id="path74" /><path
         d="m 8126.43,4824.24 c -8.09,5.62 -10.09,16.74 -4.47,24.83 5.62,8.08 16.74,10.08 24.83,4.46 l 50.2,-34.98 236.11,136.32 c 8.51,4.93 19.41,2.02 24.34,-6.49 4.93,-8.5 2.02,-19.4 -6.48,-24.33 l -245.08,-141.5 c -5.91,-3.89 -13.83,-4.03 -19.99,0.25 l -59.46,41.44"
         style="fill:#79991c;fill-opacity:1;fill-rule:nonzero;stroke:none"
         id="path76" /><path
         d="m 8605.16,4937.5 h 1251.57 c 16.98,0 30.86,-13.89 30.86,-30.86 v -0.01 c 0,-16.97 -13.88,-30.86 -30.86,-30.86 H 8605.16 c -16.97,0 -30.86,13.89 -30.86,30.86 v 0.01 c 0,16.97 13.89,30.86 30.86,30.86"
         style="fill:#e6e6e6;fill-opacity:1;fill-rule:evenodd;stroke:none"
         id="path78" /><path
         d="m 8605.16,4795.5 h 1044.29 c 16.97,0 30.86,-13.89 30.86,-30.87 v 0 c 0,-16.97 -13.89,-30.86 -30.86,-30.86 H 8605.16 c -16.97,0 -30.86,13.89 -30.86,30.86 v 0 c 0,16.98 13.89,30.87 30.86,30.87"
         style="fill:#e6e6e6;fill-opacity:1;fill-rule:evenodd;stroke:none"
         id="path80" /><path
         d="m 8401.1,3912.69 h -820.13 v -65.96 h 858.22 l 38.08,65.96 401.48,695.38 -57.13,32.98 -420.52,-728.36"
         style="fill:#49546a;fill-opacity:1;fill-rule:evenodd;stroke:none"
         id="path82" /><path
         d="m 2723.64,7655.35 c 193.6,0 350.55,-156.95 350.55,-350.55 0,-193.6 -156.95,-350.56 -350.55,-350.56 -193.6,0 -350.56,156.96 -350.56,350.56 0,193.6 156.96,350.55 350.56,350.55"
         style="fill:#fafafa;fill-opacity:1;fill-rule:evenodd;stroke:none"
         id="path84" /><path
         d="m 9886.3,1832.55 c 130.4,0 236.1,-105.7 236.1,-236.09 0,-130.38 -105.7,-236.08 -236.1,-236.08 -130.39,0 -236.09,105.7 -236.09,236.08 0,130.39 105.7,236.09 236.09,236.09"
         style="fill:#ffffff;fill-opacity:1;fill-rule:evenodd;stroke:none"
         id="path86" /><path
         d="m 5358.61,8279.97 c 210.62,0 381.37,-170.75 381.37,-381.38 0,-210.62 -170.75,-381.37 -381.37,-381.37 -210.63,0 -381.38,170.75 -381.38,381.37 0,210.63 170.75,381.38 381.38,381.38"
         style="fill:#b1b0fc;fill-opacity:1;fill-rule:evenodd;stroke:none"
         id="path88" /><path
         d="m 2441.68,6681.22 c 382.27,-286.29 676.3,-482.69 1004.13,-760.82 704.88,-597.97 633.7,-1328.34 633.7,-2188.25 -106.5,509.49 -260.92,1057.03 -573.94,1488.03 -282.78,389.34 -1058.36,850.84 -1063.89,1461.04"
         style="fill:#8380d7;fill-opacity:1;fill-rule:evenodd;stroke:none"
         id="path90" /><path
         d="m 4008.22,5898.64 c 34.66,380.5 116.06,665.59 39.44,1040.55 -149.56,731.94 -48.21,1373.45 95.32,2071.82 -1287.32,-912.25 -352.5,-2158.12 -134.76,-3112.37"
         style="fill:#8380d7;fill-opacity:1;fill-rule:evenodd;stroke:none"
         id="path92" /><path
         d="m 3716.66,1569.75 h 989.95 c 54.16,0 98.47,-44.31 98.47,-98.47 v -77.74 c 0,-54.16 -44.31,-98.47 -98.47,-98.47 h -84 c -0.11,-4.34 -0.53,-8.71 -1.32,-13.15 l -88.11,-494.604 c -11.75,-66.035 -54.92,-121.98 -121.99,-121.98 h -422.96 c -67.07,0 -113.35,55.434 -121.99,121.98 l -64.26,494.604 c -0.58,4.44 -0.82,8.81 -0.78,13.15 h -84.54 c -54.17,0 -98.48,44.31 -98.48,98.47 v 77.74 c 0,54.16 44.31,98.47 98.48,98.47"
         style="mix-blend-mode:lighten;fill:#ee6c6c;fill-opacity:0.37651822;fill-rule:evenodd;stroke:none"
         id="path94" /><path
         d="m 5990.54,6681.22 c -382.27,-286.29 -676.3,-482.69 -1004.13,-760.82 -704.88,-597.97 -633.7,-1328.34 -633.7,-2188.25 106.5,509.49 260.92,1057.03 573.93,1488.03 282.79,389.34 1058.37,850.84 1063.9,1461.04"
         style="fill:#8380d7;fill-opacity:1;fill-rule:evenodd;stroke:none"
         id="path96" /><path
         d="m 3662.32,4100.92 c 164.79,-523.55 275.96,-879.28 346.06,-1243 70.19,-364.18 99.06,-735.12 99.06,-1288.17 h -51.83 c 0,549.89 -28.56,918.02 -98.05,1278.45 -69.56,360.89 -180.36,715.45 -344.63,1237.34 z m 809.62,208.68 -3.18,-13.83 -227.24,-1206.24 -0.06,0.01 c 11.18,-205.7 20.71,-408.31 28.12,-611.45 10.95,-300.44 17.21,-599.64 17.21,-908.34 h -51.84 c 0,311.6 -6.18,609.84 -16.99,906.52 -7.47,205.27 -17.21,411.02 -28.68,620.79 l -225.82,1198.71 -10.04,43.63 c -188.79,820.34 -248.12,1078.13 -920.87,1685.96 718.59,-469.86 792.71,-898.51 971.27,-1674.42 l 10.13,-44 0.21,-1.01 154.19,-818.5 c -27.3,620.62 -66.55,1218.1 -123.43,1813.74 -60.05,628.83 -139.83,1255.9 -246,1906.35 -57.99,355.41 -139.57,616.72 -4.36,959.51 -67.4,-365.25 -20.08,-598.84 55.37,-951.21 106.31,-651.27 186.21,-1279.49 246.41,-1909.79 60.15,-629.92 100.63,-1261.78 128.09,-1920.73 h 0.02 l 4.85,-81.34 188.76,1001.97 0.21,1.01 3.27,14.2 c 141.15,732.97 221.03,1144.9 822.24,1632.91 -318.08,-415.62 -507.1,-340.48 -771.84,-1644.45"
         style="fill:#e1e2ff;fill-opacity:1;fill-rule:nonzero;stroke:none"
         id="path98" /><path
         d="m 3294.52,1973.03 c 3.06,15.34 171.79,297.56 171.79,297.56 382.41,701.64 -248.25,998.82 -484.77,416.92 -112.41,-276.71 60.6,-513.67 -66.38,-515.97 -167.5,-3.02 -146.65,-171.3 -98.05,-387.97 175.09,-780.55 492.73,-523.16 508.01,-173.76 5.33,122 -53.02,250.87 -30.6,363.22"
         style="fill:#e1e2ff;fill-opacity:1;fill-rule:evenodd;stroke:none"
         id="path100" /><path
         d="m 3096.37,1559.86 c -16.61,-293.57 -6.8,-590.36 29.64,-889.723 l -40.58,-4.801 c -36.7,301.453 -46.56,600.584 -29.8,896.754 16.8,296.73 60.41,590.47 130.54,880.6 -33.42,-262.3 -72.27,-573.32 -89.8,-882.83"
         style="fill:#b3b3b3;fill-opacity:1;fill-rule:nonzero;stroke:none"
         id="path102" /><path
         d="m 11015.8,8293.32 c 334.3,0 605.3,-271 605.3,-605.29 0,-334.28 -271,-605.28 -605.3,-605.28 -334.3,0 -605.3,271 -605.3,605.28 0,334.29 271,605.29 605.3,605.29"
         style="fill:#e6ecff;fill-opacity:1;fill-rule:evenodd;stroke:none"
         id="path104" /></g></g></svg>
