<svg width="334" height="333" viewBox="0 0 334 333" fill="none" xmlns="http://www.w3.org/2000/svg">
<path d="M323.967 2H202.113C197.124 2 193.08 6.0442 193.08 11.033V310.057C193.08 315.045 197.124 319.09 202.113 319.09H323.967C328.956 319.09 333 315.045 333 310.057V11.033C333 6.0442 328.956 2 323.967 2Z" stroke="#263238" stroke-linecap="round" stroke-linejoin="round"/>
<path d="M202.898 294.582V23.6112H323.182V294.582H202.898Z" fill="white" stroke="#263238"/>
<path d="M245.031 14.4204H277.32" stroke="#263238" stroke-width="3" stroke-linecap="round" stroke-linejoin="round"/>
<path d="M258.694 304.708C258.694 306.932 257.303 308.734 255.581 308.734C253.859 308.734 252.479 306.932 252.479 304.708C252.479 302.484 253.87 300.67 255.581 300.67C257.292 300.67 258.694 302.472 258.694 304.708Z" fill="#263238"/>
<path d="M264.008 88.7071C277.263 88.7071 288.008 78.1948 288.008 65.2273C288.008 52.2597 277.263 41.7474 264.008 41.7474C250.753 41.7474 240.008 52.2597 240.008 65.2273C240.008 78.1948 250.753 88.7071 264.008 88.7071Z" fill="#6AB5E1"/>
<path d="M264.009 65.4362C269.04 65.4362 273.119 61.3547 273.119 56.32C273.119 51.2853 269.04 47.2039 264.009 47.2039C258.977 47.2039 254.898 51.2853 254.898 56.32C254.898 61.3547 258.977 65.4362 264.009 65.4362Z" fill="white"/>
<path d="M264.009 67.8574C254.898 67.8574 247.44 73.8493 247.44 81.2471C247.448 81.9356 247.522 82.6223 247.662 83.3002C249.683 85.3223 252.19 86.9455 255.012 88.0584C257.834 89.1713 260.903 89.7475 264.009 89.7475C267.115 89.7475 270.184 89.1713 273.006 88.0584C275.827 86.9455 278.335 85.3223 280.356 83.3002C280.485 82.6213 280.555 81.935 280.564 81.2471C280.564 73.8493 273.145 67.8574 264.009 67.8574Z" fill="white"/>
<path d="M288.61 173.079H237.469C236.116 173.026 234.839 172.437 233.919 171.443C233 170.448 232.512 169.129 232.565 167.776V136.206C232.565 118.014 246.251 103.21 263.04 103.21C279.828 103.21 293.503 118.037 293.503 136.206V167.753C293.532 168.424 293.429 169.094 293.199 169.725C292.968 170.357 292.616 170.936 292.161 171.431C291.707 171.925 291.159 172.326 290.55 172.609C289.941 172.891 289.282 173.051 288.61 173.079ZM242.362 162.472H283.706V136.24C283.706 123.9 274.434 113.852 263.04 113.852C251.646 113.852 242.362 123.9 242.362 136.24V162.472Z" fill="#263238"/>
<path d="M298.544 151.535H227.535V218.712H298.544V151.535Z" fill="#6AB5E1"/>
<path d="M273.385 197.783L268.115 185.112C269.281 184.231 270.223 183.089 270.867 181.777C271.51 180.466 271.838 179.022 271.822 177.561C271.822 172.509 268.047 168.437 263.382 168.437C258.717 168.437 254.954 172.52 254.954 177.561C254.936 179.021 255.261 180.465 255.903 181.776C256.545 183.088 257.485 184.23 258.649 185.112L253.391 197.783H273.385Z" fill="white" stroke="#263238" stroke-linecap="round" stroke-linejoin="round"/>
<path d="M88.9497 62.6077C90.0806 60.102 90.6266 57.3719 90.5465 54.624C90.5465 49.5258 84.3762 46.5718 77.1225 45.762C69.8687 44.9523 66.6524 47.9062 67.7245 49.7881C68.8386 51.3402 70.1985 52.7001 71.7506 53.8142C71.7506 53.8142 64.4968 49.7881 59.661 53.0158C54.8251 56.2435 61.8166 54.8977 60.4707 58.114C59.1249 61.3303 51.6088 59.9959 49.727 68.584C47.8451 77.1722 53.217 85.7718 48.3811 89.5355C43.5453 93.2993 28.9922 88.1897 24.7494 97.5877C20.5066 106.986 26.5286 111.16 16.3323 117.068C6.13598 122.976 -1.30026 128.747 1.6537 143.243C4.60767 157.739 14.2794 162.814 33.349 157.693C52.4186 152.573 51.0728 141.042 57.3001 129.18C63.5274 117.319 73.1534 119.782 76.1074 113.065C79.0613 106.347 75.2976 98.2948 75.5713 92.1131C75.8451 85.9315 82.0153 84.597 84.4332 77.2863C86.8512 69.9755 88.9497 62.6077 88.9497 62.6077Z" fill="#263238" stroke="#263238" stroke-linecap="round" stroke-linejoin="round"/>
<path d="M3.87755 142.969C3.37738 143.979 3.12334 145.093 3.13621 146.22" stroke="white" stroke-width="0.5" stroke-linecap="round" stroke-linejoin="round"/>
<path d="M78.6393 57.2814C78.6393 57.2814 75.2862 53.4036 81.7416 55.2056C89.8735 57.4867 80.3273 66.8961 76.6548 68.7893C69.287 72.5645 59.5469 71.3555 53.8442 78.2215C48.6662 84.426 55.6577 90.8928 52.5555 95.8085C49.4532 100.724 37.0329 97.8728 32.9041 103.792C28.7754 109.711 40.3974 122.417 28.5017 129.397C19.9021 134.45 10.4814 136.388 5.93066 140.392" stroke="white" stroke-width="0.5" stroke-linecap="round" stroke-linejoin="round"/>
<path d="M59.3532 80.2289C58.6483 81.8782 58.4345 83.696 58.7373 85.4639C59.7638 89.8549 65.7173 98.1352 60.2884 102.789C54.8595 107.442 45.5414 107.18 44.0017 112.631C42.462 118.083 45.5528 133.058 40.3862 140.004C35.2196 146.95 25.1259 146.471 19.697 151.124C14.2681 155.777 15.0437 158.366 15.0437 158.366" stroke="white" stroke-width="0.5" stroke-linecap="round" stroke-linejoin="round"/>
<path d="M62.0902 75.1193C61.6202 75.7836 61.1862 76.4727 60.79 77.1836" stroke="white" stroke-width="0.5" stroke-linecap="round" stroke-linejoin="round"/>
<path d="M92.4284 142.559L93.74 152.824C93.74 152.824 100.583 159.667 105.613 163.898C110.643 168.129 123.531 177.083 123.531 177.083L116.995 178.942C116.995 178.942 95.6333 166.282 91.4134 165.255C87.1934 164.229 84.0341 158.138 82.7225 156.291C81.4109 154.443 88.9954 140.711 92.4284 142.559Z" fill="white" stroke="#263238" stroke-linecap="round" stroke-linejoin="round"/>
<path d="M105.476 309.566C105.476 309.566 111.931 315.018 114.6 316.843C117.269 318.668 120.383 319.489 119.892 320.481C119.402 321.473 118.067 322.466 111.783 321.622C105.499 320.778 103.685 318.645 102.522 318.314C101.359 317.983 98.553 318.816 96.4088 317.493C94.2646 316.17 97.6634 308.289 97.6634 308.289C98.6052 309.39 99.9063 310.122 101.336 310.356C102.766 310.59 104.233 310.31 105.476 309.566Z" fill="white" stroke="#263238" stroke-linecap="round" stroke-linejoin="round"/>
<path d="M119.869 320.481C119.874 320.428 119.874 320.375 119.869 320.321C116.241 320.655 112.582 320.311 109.08 319.306C105.02 318.348 103.822 316.193 99.9558 316.193C98.4385 316.206 96.93 315.96 95.4963 315.463C95.4548 315.843 95.5068 316.228 95.648 316.584C95.7891 316.94 96.015 317.256 96.3061 317.504C98.4503 318.827 101.267 317.995 102.419 318.326C103.571 318.656 105.396 320.812 111.68 321.633C117.965 322.454 119.368 321.473 119.869 320.481Z" fill="white" stroke="#263238" stroke-linecap="round" stroke-linejoin="round"/>
<path d="M71.682 89.1364C71.682 89.1364 72.9252 97.5078 71.3284 100.884C69.7317 104.26 64.7362 104.625 60.4706 105.343C56.205 106.062 46.4079 109.791 47.4686 119.406C48.5293 129.021 60.8242 149.847 60.8242 155.72C60.8242 161.594 57.0832 164.617 52.9887 176.01C48.8942 187.404 49.4303 208.595 50.7077 222.304C51.6439 231.352 53.4311 240.292 56.0453 249.004C56.0453 249.004 45.7806 265.565 41.2185 272.682C36.6564 279.798 20.689 310.787 20.689 310.787C20.689 310.787 20.689 311.847 23.1753 312.566C24.9246 312.991 26.7343 313.111 28.5244 312.919C28.5244 312.919 59.1362 276.069 64.8388 269.842C70.5415 263.614 75.8791 252.734 76.5863 247.761C77.2934 242.788 76.4152 212.336 76.4152 212.336C76.4152 212.336 82.8135 227.642 87.8205 235.478C90.8573 240.272 93.6439 245.221 96.1691 250.304C95.468 256.748 95.468 263.249 96.1691 269.693C97.4123 278.59 96.363 307.171 97.6062 309.486C98.8494 311.802 103.674 310.832 104.746 309.772C105.818 308.711 106.32 301.788 106.32 301.788C106.32 301.788 108.453 280.118 109.741 269.922C111.03 259.725 113.163 251.046 112.422 248.73C111.68 246.415 107.255 221.666 103.868 209.953C100.48 198.239 90.1814 176.307 87.9003 170.616C85.6192 164.924 84.3304 159.746 84.6954 157.967C85.0604 156.188 91.9948 145.513 93.8196 142.661C94.86 140.728 95.4338 138.579 95.4952 136.385C95.5565 134.191 95.1038 132.012 94.1732 130.024C92.0404 125.394 94.1732 119.155 93.8196 115.426C93.4661 111.696 87.9459 110.076 85.0946 108.662C82.2433 107.248 81.1712 104.032 81.1712 101.363C81.3453 99.1147 81.8886 96.9105 82.7793 94.839C82.7793 94.839 73.9973 89.1364 71.682 89.1364Z" fill="white" stroke="#263238" stroke-linecap="round" stroke-linejoin="round"/>
<path d="M93.2609 127.219C92.323 124.835 91.542 122.393 90.9229 119.908" stroke="#263238" stroke-linecap="round" stroke-linejoin="round"/>
<path d="M70.1421 147.041C70.1421 147.041 73.3584 147.748 79.8024 144.532" stroke="#263238" stroke-linecap="round" stroke-linejoin="round"/>
<path d="M103.902 209.838C100.674 198.616 91.1052 178.12 88.2425 171.357C74.5561 176.489 61.7594 172.11 55.7488 169.281C54.882 171.175 53.9468 173.364 52.9887 176.01C48.8942 187.416 49.4303 208.595 50.7077 222.304C51.6439 231.352 53.4311 240.292 56.0453 249.004C56.0453 249.004 45.7806 265.565 41.2185 272.682C36.6564 279.798 20.689 310.787 20.689 310.787C20.689 310.787 20.689 311.847 23.1753 312.566C24.9246 312.991 26.7343 313.111 28.5244 312.919C28.5244 312.919 59.1362 276.069 64.8388 269.842C70.5415 263.614 75.8791 252.734 76.5863 247.761C77.2934 242.788 76.4152 212.336 76.4152 212.336C76.4152 212.336 82.8135 227.642 87.8205 235.478C90.8573 240.272 93.6439 245.221 96.1691 250.304C95.468 256.748 95.468 263.249 96.1691 269.693C97.4123 278.589 96.363 307.171 97.6062 309.486C98.8494 311.802 103.674 310.832 104.746 309.772C105.818 308.711 106.32 301.788 106.32 301.788C106.32 301.788 108.453 280.118 109.741 269.921C111.03 259.725 113.163 251.046 112.422 248.73C111.68 246.415 107.289 221.586 103.902 209.838Z" fill="#263238" stroke="#263238" stroke-linecap="round" stroke-linejoin="round"/>
<path d="M173.634 198.536V196.209H175.584V177.938H173.634H154.382H152.431V196.209H154.382V198.536H152.42V202.779H159.936V201.353H168.079V202.779H175.595V198.536H173.634Z" fill="#6AB5E1" stroke="#263238" stroke-linecap="round" stroke-linejoin="round"/>
<path d="M49.2021 172.475H183.511C184.049 172.475 184.566 172.689 184.946 173.069C185.327 173.45 185.541 173.967 185.541 174.505V178.588C185.541 179.126 185.327 179.643 184.946 180.024C184.566 180.404 184.049 180.618 183.511 180.618H49.2021V172.463V172.475Z" fill="#6AB5E1" stroke="#263238" stroke-linecap="round" stroke-linejoin="round"/>
<path d="M145.6 171.254H137.422C136.799 171.254 136.293 171.76 136.293 172.384V180.721C136.293 181.344 136.799 181.85 137.422 181.85H145.6C146.223 181.85 146.729 181.344 146.729 180.721V172.384C146.729 171.76 146.223 171.254 145.6 171.254Z" fill="#6AB5E1" stroke="#263238" stroke-linecap="round" stroke-linejoin="round"/>
<path d="M53.4042 179.982C55.2966 168.426 47.4628 157.524 35.9069 155.632C24.351 153.739 13.4491 161.573 11.5568 173.129C9.66442 184.685 17.4983 195.587 29.0541 197.479C40.61 199.371 51.5119 191.538 53.4042 179.982Z" fill="#6AB5E1" stroke="#263238" stroke-linecap="round" stroke-linejoin="round"/>
<path d="M36.8392 176.501C38.0684 175.912 39.1115 174.996 39.854 173.853C40.5964 172.71 41.0095 171.385 41.0477 170.023C41.0477 165.86 37.2156 162.484 32.4824 162.484C27.7492 162.484 23.917 165.905 23.917 170.023C23.9527 171.386 24.3647 172.712 25.1075 173.855C25.8502 174.999 26.8948 175.914 28.1255 176.501C26.8955 177.091 25.8519 178.01 25.1095 179.154C24.367 180.299 23.9544 181.626 23.917 182.99C23.917 187.153 27.7492 190.529 32.4824 190.529C37.2156 190.529 41.0477 187.108 41.0477 182.99C41.0077 181.627 40.5941 180.301 39.852 179.156C39.1098 178.012 38.0677 177.093 36.8392 176.501Z" fill="white" stroke="#263238" stroke-linecap="round" stroke-linejoin="round"/>
<path d="M119.345 180.801C119.345 180.801 125.983 183.606 128.036 183.606C130.088 183.606 132.461 181.542 133.636 179.044C134.81 176.547 134.776 175.36 134.08 175.953L132.609 177.094C132.609 177.094 133.75 174.596 132.461 174.893C131.568 175.19 130.827 175.824 130.396 176.661C130.396 176.661 130.248 174.448 129.073 175.52C128.296 176.224 127.603 177.016 127.009 177.881C127.009 177.881 126.861 175.087 126.119 175.817C125.378 176.547 122.595 180.527 122.595 180.527L119.345 180.801Z" fill="white" stroke="#263238" stroke-linecap="round" stroke-linejoin="round"/>
<path d="M127.009 177.858C127.009 177.858 126.565 181.394 124.363 181.987L127.009 177.858Z" fill="white"/>
<path d="M127.009 177.858C127.009 177.858 126.565 181.394 124.363 181.987" stroke="#263238" stroke-linecap="round" stroke-linejoin="round"/>
<path d="M130.396 176.683C130.396 176.683 129.256 182.272 127.454 183.162L130.396 176.683Z" fill="white"/>
<path d="M130.396 176.683C130.396 176.683 129.256 182.272 127.454 183.162" stroke="#263238" stroke-linecap="round" stroke-linejoin="round"/>
<path d="M132.609 177.117C132.021 179.156 131.23 181.131 130.249 183.013L132.609 177.117Z" fill="white"/>
<path d="M132.609 177.117C132.021 179.156 131.23 181.131 130.249 183.013" stroke="#263238" stroke-linecap="round" stroke-linejoin="round"/>
<path d="M84.673 108.32C83.5243 107.544 82.5939 106.487 81.9708 105.249C81.3478 104.011 81.0529 102.633 81.1146 101.249C81.3191 99.0361 81.8815 96.8714 82.7797 94.839C82.7797 94.839 74.0547 89.1364 71.7394 89.1364C71.7394 89.1364 72.9826 97.5078 71.3859 100.884C70.8625 101.934 70.0091 102.783 68.9565 103.302C71.0652 108.979 73.9228 114.349 77.4535 119.269C80.6584 123.295 82.2209 114.81 84.673 108.32Z" fill="white" stroke="#263238" stroke-linecap="round" stroke-linejoin="round"/>
<path d="M57.7449 106.495C55.5685 106.867 53.5082 107.739 51.7268 109.044C49.9454 110.348 48.4916 112.049 47.4801 114.011C43.9673 120.786 28.6158 151.535 29.9274 153.371C37.3865 163.864 64.5196 171.414 67.2797 174.174C70.039 177.06 73.0675 179.676 76.3241 181.987C79.0842 183.743 84.5929 182.99 85.5966 182.489C86.6003 181.987 87.353 179.729 85.5966 179.729C84.9256 179.737 84.2718 179.516 83.7445 179.101C83.2173 178.685 82.8484 178.102 82.6996 177.447C82.4487 176.444 85.4597 178.451 86.9652 177.698C88.4707 176.946 83.6007 174.197 82.0952 172.942C80.5897 171.688 79.3351 169.943 77.3278 169.943C75.3204 169.943 71.5453 169.943 71.5453 169.943C71.5453 169.943 62.307 163.248 56.7184 158.264C52.3699 154.34 47.6266 150.877 42.5645 147.931L59.5013 120.068" fill="white"/>
<path d="M57.7449 106.495C55.5685 106.867 53.5082 107.739 51.7268 109.044C49.9454 110.348 48.4916 112.049 47.4801 114.011C43.9673 120.786 28.6158 151.535 29.9274 153.371C37.3865 163.864 64.5196 171.414 67.2797 174.174C70.039 177.06 73.0675 179.676 76.3241 181.987C79.0842 183.743 84.5929 182.99 85.5966 182.489C86.6003 181.987 87.353 179.729 85.5966 179.729C84.9256 179.737 84.2718 179.516 83.7445 179.101C83.2173 178.685 82.8484 178.102 82.6996 177.447C82.4487 176.444 85.4597 178.451 86.9652 177.698C88.4707 176.946 83.6007 174.197 82.0952 172.942C80.5897 171.688 79.3351 169.943 77.3278 169.943C75.3204 169.943 71.5453 169.943 71.5453 169.943C71.5453 169.943 62.307 163.248 56.7184 158.264C52.3699 154.34 47.6266 150.877 42.5645 147.931L59.5013 120.068" stroke="#263238" stroke-linecap="round" stroke-linejoin="round"/>
<path d="M82.0836 172.954C80.5781 171.699 79.3235 169.954 77.3162 169.954C75.3088 169.954 71.5337 169.954 71.5337 169.954C71.5337 169.954 62.2954 163.259 56.7068 158.275C52.3583 154.351 47.615 150.888 42.5529 147.942L49.3276 136.788C45.8641 134.691 41.9022 133.561 37.8539 133.514C33.2918 143.026 29.1973 152.424 29.8702 153.416C37.3292 163.909 64.4624 171.46 67.2225 174.22C69.9818 177.106 73.0103 179.722 76.2669 182.032C79.0269 183.789 84.5357 183.036 85.5394 182.534C86.543 182.032 87.2958 179.774 85.5394 179.774C84.8683 179.783 84.2146 179.561 83.6873 179.146C83.1601 178.731 82.7912 178.147 82.6424 177.493C82.3915 176.489 85.4025 178.497 86.908 177.744C88.4135 176.991 83.5891 174.22 82.0836 172.954Z" fill="white" stroke="#263238" stroke-linecap="round" stroke-linejoin="round"/>
<path d="M91.2651 76.8529C90.3755 75.0737 90.3755 73.648 90.729 71.1503C91.0826 68.6525 88.9498 62.5963 88.9498 62.5963C86.7714 66.3601 80.4757 68.5955 77.6928 69.4395C74.6248 70.3747 79.1071 72.4961 78.628 75.336C78.149 78.1759 72.0244 79.8183 72.0244 79.8183C72.0244 79.8183 70.2337 76.1344 67.7474 76.1344C65.261 76.1344 63.4932 81.837 64.9075 84.8594C65.276 85.6967 65.9179 86.384 66.7281 86.8088C67.5383 87.2336 68.4687 87.3706 69.3669 87.1975C69.3669 87.1975 69.1959 92.5466 72.5718 94.1433C76.174 95.8621 79.932 97.2331 83.7946 98.2378C85.9274 98.5914 88.0602 97.5307 88.9498 94.3258C89.6455 91.096 90.1218 87.8228 90.3755 84.5287C91.8689 83.5515 93.2431 82.4032 94.47 81.1071C95.3254 79.8753 92.1547 78.6321 91.2651 76.8529Z" fill="white" stroke="#263238" stroke-linecap="round" stroke-linejoin="round"/>
<path d="M87.798 76.9327C87.798 77.9136 87.4787 78.7006 87.0909 78.7006C86.7031 78.7006 86.3838 77.9136 86.3838 76.9327C86.3838 75.9519 86.7031 75.1649 87.0909 75.1649C87.4787 75.1649 87.798 75.9519 87.798 76.9327Z" fill="#263238"/>
<path d="M84.7295 73.9902C84.7295 73.9902 86.6228 71.8574 88.037 72.3365" stroke="#263238" stroke-linecap="round" stroke-linejoin="round"/>
<path d="M88.0375 88.6117C87.1827 88.8695 86.2755 88.8999 85.4055 88.6999C84.5354 88.4999 83.7325 88.0764 83.0762 87.4712" stroke="#263238" stroke-linecap="round" stroke-linejoin="round"/>
<path d="M20.7688 310.787C20.7688 310.787 16.5146 319.318 16.6743 320.481C16.834 321.644 25.2739 327.758 29.2201 329.902C33.1663 332.046 40.3061 332.388 39.8042 329.411C39.3024 326.435 32.5276 324.45 30.8739 319.979C29.9932 317.667 29.2318 315.31 28.5928 312.919C25.8359 312.96 23.1235 312.221 20.7688 310.787Z" fill="white" stroke="#263238" stroke-linecap="round" stroke-linejoin="round"/>
<path d="M39.8272 329.457C36.7907 329.864 33.7007 329.426 30.8969 328.191C24.7722 325.534 18.8415 320.105 17.2105 318.565C16.9209 319.18 16.7358 319.839 16.6631 320.515C16.8342 321.656 25.2627 327.792 29.2089 329.936C33.1551 332.08 40.2378 332.377 39.8272 329.457Z" fill="white" stroke="#263238" stroke-linecap="round" stroke-linejoin="round"/>
</svg>
